# xmcd
#
# Track frame offsets:
# 150
# 21385
# 36745
# 51195
# 66185
# 80735
# 94900
# 110640
# 130595
# 146215
# 161605
# 177730
# 193600
# 213705
# 229545
# 245780
# 260385
# 277005
# 294000
#
# Disc length: 4108 seconds
#
#
# Revision: 0
# Processed by: cddbd v1.5.2PL0 Copyright (c) Steve Scherf et al.
# Submitted via: FreeRIP 2.951 
#
DISCID=2f100a13
DTITLE=COMPANHIA DO CALYPSO - AO VIVO DE GOIANA 
DYEAR=2006
DGENRE=FORRÓ
TTITLE0=THIC BUM
TTITLE1=ME ACALMA
TTITLE2=BANG BANG
TTITLE3=ZAP ZUM
TTITLE4=FESTA DE RODEIO
TTITLE5=LIGAÇÃO A COBRAR
TTITLE6=OLHO NO OLHO
TTITLE7=MILK SHAKE
TTITLE8=VIROU MINHACABEÇA
TTITLE9=ESCRITO NO TARÕ
TTITLE10=SINFONIA DE DELÍRIOS
TTITLE11=NÃO ADMITO
TTITLE12=DIVÃ
TTITLE13=PING PONG
TTITLE14=PETECA
TTITLE15=SÓ EU
TTITLE16=DIÁRIO
TTITLE17=OLHAR NOTURNO
TTITLE18=CHA DE SEMANCOL
EXTD=GOIANA PARK SHOW BRAZIL
EXTT0=
EXTT1=
EXTT2=
EXTT3=
EXTT4=
EXTT5=
EXTT6=
EXTT7=
EXTT8=
EXTT9=
EXTT10=
EXTT11=
EXTT12=
EXTT13=
EXTT14=
EXTT15=
EXTT16=
EXTT17=
EXTT18=
PLAYORDER=
